<?xml version="1.0" encoding="utf-8"?>
<!-- Generator: Adobe Illustrator 18.1.0, SVG Export Plug-In . SVG Version: 6.00 Build 0)  -->
<svg version="1.1" id="Layer_1" xmlns="http://www.w3.org/2000/svg" xmlns:xlink="http://www.w3.org/1999/xlink" x="0px" y="0px"
	 viewBox="0 0 108.2 83.1" enable-background="new 0 0 108.2 83.1" xml:space="preserve">
<path fill="#333333" d="M53,19.2H7c-3.9,0-7,3.1-7,7v119c8.4,6.3,18.7,10,30,10c11.3,0,21.6-3.7,30-10v-119
	C60,22.3,56.9,19.2,53,19.2"/>
<path fill="#111111" d="M56,31.2H4c-0.6,0-1,0.4-1,1v115.1c7.8,5,17.1,7.9,27,7.9c9.9,0,19.2-2.9,27-7.9V32.2
	C57,31.6,56.6,31.2,56,31.2"/>
<path fill="#22A048" d="M55,33.2H5v115.3c7.4,4.3,15.9,6.7,25,6.7c9.1,0,17.6-2.4,25-6.7V33.2z"/>
<path fill="#111111" d="M35,23.2H25c-0.6,0-1,0.4-1,1c0,0.6,0.4,1,1,1h10c0.6,0,1-0.4,1-1C36,23.6,35.6,23.2,35,23.2 M39,23.2
	c-0.6,0-1,0.4-1,1c0,0.6,0.4,1,1,1c0.6,0,1-0.4,1-1C40,23.6,39.6,23.2,39,23.2 M43,23.2c-0.6,0-1,0.4-1,1c0,0.6,0.4,1,1,1
	c0.6,0,1-0.4,1-1C44,23.6,43.6,23.2,43,23.2"/>
<path fill="#EEEEEE" d="M21.5,56.2c-0.8,0-1.5,0.6-1.5,1.3v5.5c0,0.7,0.7,1.3,1.5,1.3c0.8,0,1.5-0.6,1.5-1.3v-5.5
	C23,56.7,22.3,56.2,21.5,56.2 M32.5,50.9l1.2-1.2c0.2-0.1,0.2-0.4,0-0.5c-0.1-0.1-0.4-0.1-0.5,0l-1.5,1.4c-0.5-0.1-1.1-0.2-1.7-0.2
	c-0.6,0-1.2,0.1-1.7,0.2l-1.5-1.4c-0.2-0.1-0.4-0.1-0.6,0c-0.1,0.1-0.1,0.4,0,0.5l1.2,1.2c-2,0.7-3.5,2.3-3.5,4.2c0,0,12,0,12,0
	C36,53.3,34.6,51.7,32.5,50.9 M28,54.2c-0.6,0-1-0.4-1-1c0-0.5,0.4-1,1-1c0.6,0,1,0.4,1,1C29,53.7,28.5,54.2,28,54.2 M32,54.2
	c-0.6,0-1-0.4-1-1c0-0.5,0.4-1,1-1c0.6,0,1,0.4,1,1C33,53.7,32.5,54.2,32,54.2 M38.5,56.2c-0.8,0-1.5,0.6-1.5,1.3v5.5
	c0,0.7,0.7,1.3,1.5,1.3c0.8,0,1.5-0.6,1.5-1.3v-5.5C40,56.7,39.3,56.2,38.5,56.2 M24,64.1c0,1.1,0.9,2,2,2V70c0,0.7,0.7,1.2,1.4,1.2
	c0.8,0,1.4-0.5,1.4-1.2v-3.8H31V70c0,0.7,0.6,1.2,1.4,1.2c0.8,0,1.4-0.5,1.4-1.2v-3.8h0c1.2,0,2.1-0.9,2.1-2v-8H24L24,64.1L24,64.1z
	"/>
<rect y="19.2" fill="none" width="60" height="136"/>
<path fill="#D8D8D8" d="M97.2,0h-8c-0.6,0-1,0.4-1,1v1h10V1C98.2,0.4,97.7,0,97.2,0z M47.2,18v6c0,0.6,0.4,1,1,1h1v-8h-1
	C47.6,17,47.2,17.4,47.2,18z M47.2,32v3c0,0.6,0.4,1,1,1h1v-5h-1C47.6,31,47.2,31.4,47.2,32z M47.2,42v3c0,0.6,0.4,1,1,1h1v-5h-1
	C47.6,41,47.2,41.4,47.2,42z"/>
<path fill="#FCFCFC" d="M100.2,1h-44c-4.4,0-8,3.6-8,8v118c8.4,6.3,18.7,10,30,10s21.6-3.7,30-10V9C108.2,4.6,104.6,1,100.2,1z"/>
<path fill="#111111" d="M102.2,18h-48c-1.1,0-2,0.9-2,2v109.7c7.6,4.6,16.5,7.3,26,7.3s18.4-2.7,26-7.3V20
	C104.2,18.9,103.3,18,102.2,18z"/>
<path fill="#333333" d="M54.2,130.9c7.1,3.9,15.3,6.1,24,6.1c8.7,0,16.9-2.2,24-6.1V20h-48V130.9z"/>
<path fill="#EEEEEE" d="M84.7,43.7c-0.8-1.1-2-1.7-3.1-1.7c-1.5,0-2.1,0.7-3.1,0.7c-1.1,0-1.9-0.7-3.1-0.7c-1.2,0-2.6,0.8-3.4,2.1
	c-1.2,1.9-1,5.5,0.9,8.5c0.7,1.1,1.6,2.3,2.8,2.3c1.1,0,1.4-0.7,2.8-0.7c1.4,0,1.7,0.7,2.8,0.7c1.2,0,2.2-1.4,2.9-2.5
	c0.5-0.8,0.7-1.2,1.1-2.1C82.4,49.4,81.9,45.3,84.7,43.7L84.7,43.7z M80.4,40.8C81,40,81.4,39,81.2,38c-0.9,0.1-1.9,0.6-2.5,1.4
	c-0.5,0.7-1,1.7-0.8,2.7C78.9,42.1,79.9,41.5,80.4,40.8z"/>
<path fill="#BFC3C5" d="M83.2,11h-9c-0.6,0-1,0.4-1,1c0,0.6,0.4,1,1,1h9c0.6,0,1-0.4,1-1C84.2,11.4,83.7,11,83.2,11z M78.7,9
	c0.8,0,1.5-0.7,1.5-1.5c0-0.8-0.7-1.5-1.5-1.5c-0.8,0-1.5,0.7-1.5,1.5C77.2,8.3,77.8,9,78.7,9z"/>
</svg>
