<?xml version="1.0" encoding="utf-8"?>
<!-- Generator: Adobe Illustrator 18.1.0, SVG Export Plug-In . SVG Version: 6.00 Build 0)  -->
<svg version="1.1" id="Layer_1" xmlns="http://www.w3.org/2000/svg" xmlns:xlink="http://www.w3.org/1999/xlink" x="0px" y="0px"
	 viewBox="20 20 60 60" enable-background="new 20 20 60 60" xml:space="preserve">
<path fill="#EFC75E" d="M20,35l30-15l30,15l0,2L50,52L20,37L20,35z"/>
<path fill="#E7BF55" d="M20,35l30,15l30-15v30L49.9,80L20,65L20,35z"/>
<path fill="#DBB551" d="M50,79.9V50l0,0L20,35v30l29.9,15L50,79.9z"/>
<path fill="#F1D999" d="M62,44v8.8l2.7,0.2l1.7-2l1.6,0.3V41L62,44z"/>
<path fill="#F7E3AF" d="M32,29l30.5,15.3L68,41L38,26L32,29z"/>
<path fill="#F2F2F2" d="M44,63.1l-10-5c-0.6-0.3-1,0.1-1,0.8v6.3c0,0.7,0.4,1.5,1,1.8l10,5c0.6,0.3,1-0.1,1-0.8v-6.3
	C45,64.2,44.5,63.4,44,63.1z M41.5,68.1l-6-3C35.2,65,35,64.6,35,64.2s0.2-0.5,0.5-0.4l6,3c0.3,0.1,0.5,0.5,0.5,0.9
	S41.8,68.3,41.5,68.1z M42.5,66.1l-7-3.5c-0.3-0.1-0.5-0.5-0.5-0.9s0.2-0.5,0.5-0.4l7,3.5c0.3,0.1,0.5,0.5,0.5,0.9
	C43,66.1,42.8,66.3,42.5,66.1z"/>
</svg>
