<?xml version="1.0" encoding="utf-8"?>
<!-- Generator: Adobe Illustrator 18.1.0, SVG Export Plug-In . SVG Version: 6.00 Build 0)  -->
<svg version="1.1" id="Isolation_Mode" xmlns="http://www.w3.org/2000/svg" xmlns:xlink="http://www.w3.org/1999/xlink" x="0px"
	 y="0px" viewBox="0 0 200 1192.1" enable-background="new 0 0 200 1192.1" xml:space="preserve">
<g>
	<path fill="#161616" d="M200,563.4V619c0,2.8-2.2,5-5,5h-10.7c-2.8,0-5-2.2-5-5v-55.6c0-2.8,2.2-5,5-5H195
		C197.8,558.4,200,560.6,200,563.4z"/>
	<path fill="#161616" d="M193.9,490.4h-8.5c-3.4,0-6.1-2.7-6.1-6.1v-53.4c0-3.4,2.7-6.1,6.1-6.1h8.5c3.4,0,6.1,2.7,6.1,6.1v53.4
		C200,487.7,197.3,490.4,193.9,490.4z"/>
	<path fill="#161616" d="M193.9,545h-8.5c-3.4,0-6.1-2.7-6.1-6.1v-29.2c0-3.4,2.7-6.1,6.1-6.1h8.5c3.4,0,6.1,2.7,6.1,6.1V539
		C200,542.3,197.3,545,193.9,545z"/>
	<path fill="#161616" d="M14,459v55.9c0,2.8-2.2,5-5,5H5c-2.8,0-5-2.2-5-5L0,459c0-2.8,2.2-5,5-5h4C11.7,454,14,456.2,14,459z"/>
	<path fill="#bbb" d="M192.4,386.2v274.4c0,2.8-2.2,5-5,5h-175c-2.8,0-5-2.2-5-5V386.2c0-2.8,2.2-5,5-5h175
		C190.2,381.2,192.4,383.4,192.4,386.2z"/>
	<path opacity="0.15" fill="#FFFFFF" d="M188.4,641v18.3c0,1.1-0.9,2-2,2H14.2c-1.1,0-2-0.9-2-2V641H188.4z"/>
	<g>
		<path fill="#222222" d="M161.2,454.2v138.3c0,1.1-0.9,2-2,2H40.6c-1.1,0-2-0.9-2-2V454.2c0-1.1,0.9-2,2-2h118.7
			C160.3,452.2,161.2,453.1,161.2,454.2z"/>
		<g>
			<polygon fill="#EDEDED" points="68.3,522.2 64.7,522.2 64.7,518.5 58.6,518.5 58.6,512.5 52.5,512.5 52.5,534.3 58.6,534.3 
				58.6,522.2 62.2,522.2 62.2,534.3 68.3,534.3 70.8,534.3 70.8,530.7 68.3,530.7 			"/>
			<path fill="#EDEDED" d="M80.5,528.2h6.1v-2.4v-1.2v-6.1h-2.4h-1.2h-6.1v3.6h-2.4v2.4v2.4h-3.6v3.6h6.1v3.6h13.4v-3.6h-9.7V528.2z
				 M80.5,522.2h2.4v2.4h-2.4V522.2z"/>
			<polygon fill="#EDEDED" points="99.9,528.2 103.5,528.2 103.5,524.6 99.9,524.6 99.9,516.1 103.5,516.1 103.5,512.5 97.5,512.5 
				97.5,516.1 93.8,516.1 93.8,528.2 90.2,528.2 90.2,530.7 93.8,530.7 97.5,530.7 97.5,534.3 107.2,534.3 107.2,530.7 99.9,530.7 
							"/>
			<rect x="103.5" y="516.1" fill="#EDEDED" width="3.6" height="8.5"/>
			<polygon fill="#EDEDED" points="115.7,529.5 115.7,528.2 119.3,528.2 119.3,524.6 115.7,524.6 115.7,516.1 119.3,516.1 
				119.3,512.5 113.3,512.5 113.3,516.1 109.6,516.1 109.6,528.2 107.2,528.2 107.2,530.7 113.3,530.7 113.3,534.3 123,534.3 
				123,530.7 115.7,530.7 			"/>
			<rect x="119.3" y="516.1" fill="#EDEDED" width="3.6" height="8.5"/>
			<path fill="#EDEDED" d="M141.2,521v-2.4h-12.1v3.6h-3.6v6.1H123v2.4h2.4h1.2h2.4v3.6h9.7v-3.6h2.4v-4.9h2.4v-3.6h-2.4V521z
				 M131.5,530.7v-8.5h3.6v8.5H131.5z"/>
			<rect x="143.6" y="518.5" fill="#EDEDED" width="3.6" height="3.6"/>
		</g>
	</g>
	<path fill="#333333" d="M160.9,1141.7V640.7c0-1.7-1.3-3-3-3H41.6c-1.7,0-3,1.3-3,3v501.1c0,27.8,22.6,50.4,50.4,50.4h21.6
		C138.4,1192.1,160.9,1169.6,160.9,1141.7z"/>
	<path opacity="0.1" fill="#010100" d="M38.6,641.8v23.8H41v-23.7c0-1,0.8-1.8,1.8-1.8h114.3c1,0,1.8,0.8,1.8,1.8v23.7h2.4v-23.8
		c0-2.3-1.9-4.1-4.1-4.1H42.7C40.4,637.7,38.6,639.5,38.6,641.8z"/>
	<rect x="45.6" y="649.2" opacity="0.1" fill="#FFFFFF" width="109.3" height="12.1"/>
	<path opacity="0.15" fill="#FFFFFF" d="M12.2,406.3v-18.3c0-1.1,0.9-2,2-2h172.1c1.1,0,2,0.9,2,2v18.3H12.2z"/>
	<path fill="#333333" d="M39,3v402.7c0,1.7,1.3,3,3,3h116.4c1.7,0,3-1.3,3-3V3c0-1.7-1.3-3-3-3L42,0C40.3,0,39,1.3,39,3z"/>
	<path opacity="0.1" fill="#010100" d="M161.3,404.6v-23.8h-2.4v23.7c0,1-0.8,1.8-1.8,1.8H42.8c-1,0-1.8-0.8-1.8-1.8v-23.7h-2.4
		v23.8c0,2.3,1.9,4.1,4.1,4.1h114.5C159.5,408.7,161.3,406.9,161.3,404.6z"/>
	<rect x="44.9" y="385" opacity="0.1" fill="#FFFFFF" width="109.3" height="12.1"/>
</g>
</svg>
