<?xml version="1.0" encoding="utf-8"?>
<!-- Generator: Adobe Illustrator 18.0.0, SVG Export Plug-In . SVG Version: 6.00 Build 0)  -->
<!DOCTYPE svg PUBLIC "-//W3C//DTD SVG 1.1//EN" "http://www.w3.org/Graphics/SVG/1.1/DTD/svg11.dtd">
<svg version="1.1" id="Layer_1" xmlns="http://www.w3.org/2000/svg" xmlns:xlink="http://www.w3.org/1999/xlink" x="0px" y="0px"
	 width="40px" height="40px" viewBox="0 0 40 40" enable-background="new 0 0 40 40" xml:space="preserve">
<path fill="#9B48D5" d="M20,0c11.046,0,20,8.954,20,20c0,11.045-8.954,20-20,20S0,31.045,0,20C0,8.954,8.954,0,20,0z"/>
<path fill="#52DA9C" d="M21.2,23.37c0-3.851-3.85-6.974-8.6-6.974S4,19.518,4,23.37s3.85,6.974,8.6,6.974
	c0.418,0,0.825-0.032,1.226-0.079c1.786,1.392,3.587,1.734,3.611,1.692c-0.628-0.647-1.01-1.467-1.245-2.256
	C19.146,28.596,21.2,26.18,21.2,23.37z"/>
<path fill="#49C48C" d="M21.2,23.37c0-3.232-2.716-5.944-6.396-6.734L14.8,16.768c0,3.693,2.385,6.93,5.972,8.766
	C21.047,24.852,21.2,24.126,21.2,23.37z"/>
<path fill="#49C48C" d="M5.2,23.329c0-2.956,2.058-5.498,5.018-6.656C6.628,17.511,4,20.189,4,23.37c0,3.347,2.908,6.14,6.786,6.815
	C7.525,29.143,5.2,26.471,5.2,23.329z"/>
<path fill="#40BB65" d="M35.179,6.977C33.301,6.1,31.124,5.596,28.8,5.596c-7.069,0-12.8,4.644-12.8,10.372
	c0,4.181,3.055,7.782,7.454,9.422c-0.351,1.17-0.922,2.387-1.854,3.347c0.036,0.062,2.708-0.446,5.362-2.506
	c0.601,0.07,1.214,0.108,1.838,0.108c4.8,0,8.98-2.142,11.17-5.308C39.99,20.675,40,20.318,40,19.958
	C40,14.999,38.182,10.467,35.179,6.977z"/>
<path fill="#FFFFFF" d="M23.2,14.4c-0.884,0-1.6,0.717-1.6,1.6c0,0.884,0.716,1.6,1.6,1.6c0.884,0,1.6-0.716,1.6-1.6
	C24.8,15.117,24.084,14.4,23.2,14.4z M28.8,14.4c-0.884,0-1.6,0.717-1.6,1.6c0,0.884,0.716,1.6,1.6,1.6c0.884,0,1.6-0.716,1.6-1.6
	C30.4,15.117,29.684,14.4,28.8,14.4z M34.4,14.4c-0.884,0-1.6,0.717-1.6,1.6c0,0.884,0.716,1.6,1.6,1.6c0.884,0,1.6-0.716,1.6-1.6
	C36,15.117,35.284,14.4,34.4,14.4z"/>
<path fill="#39A85A" d="M22.8,28.336c0.932-0.959,1.503-2.176,1.854-3.347c-4.399-1.641-7.454-5.241-7.454-9.422
	c0-4.143,2.999-7.717,7.333-9.379C19.562,7.612,16,11.452,16,15.967c0,4.181,3.055,7.782,7.454,9.422
	c-0.351,1.17-0.922,2.388-1.854,3.347c0.019,0.033,0.775-0.096,1.872-0.525C23.061,28.32,22.811,28.355,22.8,28.336z M23.2,17.6
	c-0.884,0-1.6-0.716-1.6-1.6c0-0.34,0.108-0.654,0.288-0.913c-0.415,0.29-0.688,0.769-0.688,1.313c0,0.884,0.716,1.6,1.6,1.6
	c0.544,0,1.024-0.273,1.312-0.688C23.854,17.493,23.54,17.6,23.2,17.6z M28.8,17.6c-0.884,0-1.6-0.716-1.6-1.6
	c0-0.34,0.108-0.654,0.288-0.913c-0.415,0.29-0.688,0.769-0.688,1.313c0,0.884,0.716,1.6,1.6,1.6c0.544,0,1.024-0.273,1.312-0.688
	C29.454,17.493,29.14,17.6,28.8,17.6z M34.4,17.6c-0.884,0-1.6-0.716-1.6-1.6c0-0.34,0.108-0.654,0.288-0.913
	c-0.415,0.29-0.688,0.769-0.688,1.313c0,0.884,0.716,1.6,1.6,1.6c0.544,0,1.024-0.273,1.312-0.688
	C35.054,17.493,34.74,17.6,34.4,17.6z"/>
<g>
	<g>
		<path fill-rule="evenodd" clip-rule="evenodd" fill="#FFFFFF" d="M9.375,22.499c-0.345,0-0.625,0.28-0.625,0.625
			c0,0.345,0.28,0.625,0.625,0.625c0.345,0,0.625-0.28,0.625-0.625C10,22.779,9.721,22.499,9.375,22.499z M11.875,22.499
			c-0.345,0-0.625,0.28-0.625,0.625c0,0.345,0.28,0.625,0.625,0.625s0.625-0.28,0.625-0.625C12.5,22.779,12.22,22.499,11.875,22.499
			z M14.375,22.499c-0.345,0-0.625,0.28-0.625,0.625c0,0.345,0.28,0.625,0.625,0.625c0.345,0,0.625-0.28,0.625-0.625
			C15,22.779,14.72,22.499,14.375,22.499z"/>
	</g>
</g>
</svg>
