<?xml version="1.0" encoding="utf-8"?>
<!-- Generator: Adobe Illustrator 18.0.0, SVG Export Plug-In . SVG Version: 6.00 Build 0)  -->
<!DOCTYPE svg PUBLIC "-//W3C//DTD SVG 1.1//EN" "http://www.w3.org/Graphics/SVG/1.1/DTD/svg11.dtd">
<svg version="1.1" id="Layer_1" xmlns="http://www.w3.org/2000/svg" xmlns:xlink="http://www.w3.org/1999/xlink" x="0px" y="0px"
	 width="40px" height="40px" viewBox="0 0 40 40" enable-background="new 0 0 40 40" xml:space="preserve">
<path fill="#D548A2" d="M20,0C8.954,0,0,8.954,0,20s8.954,20,20,20s20-8.954,20-20S31.046,0,20,0z"/>
<path fill="#CCD0D2" d="M30.4,11.2h2.8c0.884,0,1.6,0.717,1.6,1.6v2.8c0,0.884-0.716,1.6-1.6,1.6h-2.8c-0.884,0-1.6-0.716-1.6-1.6
	v-2.8C28.8,11.916,29.516,11.2,30.4,11.2z"/>
<path fill="#F3F3F3" d="M31.6,12.8c0-0.884,0.716-1.6,1.6-1.6H8.4c-0.824,0-1.6,0.782-1.6,1.6v22.219C10.322,38.117,14.94,40,20,40
	c4.326,0,8.328-1.378,11.6-3.713V12.8z"/>
<path fill="#CCD0D2" d="M27.8,21.2H10.6c-0.331,0-0.6,0.269-0.6,0.6s0.269,0.6,0.6,0.6h17.2c0.331,0,0.6-0.269,0.6-0.6
	S28.131,21.2,27.8,21.2z M27.8,24H10.6c-0.331,0-0.6,0.269-0.6,0.6c0,0.332,0.269,0.6,0.6,0.6h17.2c0.331,0,0.6-0.268,0.6-0.6
	C28.4,24.269,28.131,24,27.8,24z M27.8,26.8H10.6c-0.331,0-0.6,0.269-0.6,0.6s0.269,0.6,0.6,0.6h17.2c0.331,0,0.6-0.269,0.6-0.6
	S28.131,26.8,27.8,26.8z M27.8,29.6H10.6c-0.331,0-0.6,0.269-0.6,0.6c0,0.331,0.269,0.6,0.6,0.6h17.2c0.331,0,0.6-0.269,0.6-0.6
	C28.4,29.869,28.131,29.6,27.8,29.6z M23,16.8h4.8c0.331,0,0.6-0.269,0.6-0.6c0-0.331-0.269-0.6-0.6-0.6H23
	c-0.331,0-0.6,0.269-0.6,0.6C22.4,16.531,22.669,16.8,23,16.8z M22.6,32.4h-12c-0.331,0-0.6,0.269-0.6,0.6s0.269,0.6,0.6,0.6h12
	c0.331,0,0.6-0.269,0.6-0.6S22.931,32.4,22.6,32.4z M11.4,14.8c-0.773,0-1.4,0.626-1.4,1.4s0.627,1.4,1.4,1.4s1.4-0.627,1.4-1.4
	C12.8,15.426,12.173,14.8,11.4,14.8z M15.4,14.8c-0.773,0-1.4,0.626-1.4,1.4s0.627,1.4,1.4,1.4c0.773,0,1.4-0.627,1.4-1.4
	C16.8,15.426,16.173,14.8,15.4,14.8z"/>
</svg>
