<?xml version="1.0" encoding="utf-8"?>
<!-- Generator: Adobe Illustrator 18.1.1, SVG Export Plug-In . SVG Version: 6.00 Build 0)  -->
<svg version="1.1" id="Layer_1" xmlns="http://www.w3.org/2000/svg" xmlns:xlink="http://www.w3.org/1999/xlink" x="0px" y="0px"
	 viewBox="-191 193 128 128" enable-background="new -191 193 128 128" xml:space="preserve">
<path fill="#2C67CE" d="M-127,193c35.3,0,64,28.7,64,64c0,35.3-28.7,64-64,64s-64-28.7-64-64C-191,221.7-162.3,193-127,193z"/>
<linearGradient id="SVGID_1_" gradientUnits="userSpaceOnUse" x1="-126.5" y1="228" x2="-126.5" y2="296.999" gradientTransform="matrix(1 0 0 -1 0 516)">
	<stop  offset="0" style="stop-color:#F0CC59"/>
	<stop  offset="1" style="stop-color:#F7E4A9"/>
</linearGradient>
<path fill="url(#SVGID_1_)" d="M-126.5,219c13.5,0,24.5,11,24.5,24.5c0,5.9-1.9,11.4-4.4,15.5c-1.3,1.3-2.5,3.8-3.1,5
	c-1.8,3.5-4.7,20.5-8.4,22.1c-2.9,1.2-5.2,1.9-8.5,1.9c-3.3,0-5.5-0.7-8.4-1.9c-3.7-1.6-6.6-18.6-8.6-22.1c-0.7-1.3-1.7-2.8-3.1-5
	c-2.5-4.1-4.4-9.6-4.4-15.5C-151,230-140,219-126.5,219z"/>
<path fill="#495F6D" d="M-113.7,244.5c-1.3-1.4-2.5-1.2-3.2-1.1c-2.1,0.6-3,3.3-3.2,4.2c-0.2,1-0.4,2.2-0.6,3.5
	c-0.5,0-0.9,0.1-1.5,0c-0.8,0-1.4-0.2-2-0.4c0.3-0.3,0.5-0.7,0.7-1.1c1.2-2.2,1.2-4.7,0.2-6.3c-0.7-1.1-1.9-1.7-3.2-1.7
	c-1.4,0-2.5,0.5-3.2,1.7c-1,1.6-1,4.1,0.2,6.3c0.2,0.4,0.4,0.8,0.7,1.1c-0.6,0.2-1.2,0.3-2,0.4c-0.5,0-1,0-1.5,0
	c-0.2-1.4-0.4-2.6-0.6-3.5c-0.2-0.9-1.1-3.7-3.2-4.2c-0.6-0.2-1.9-0.3-3.2,1.1c-1.4,1.4-1.7,3.4-0.9,5.2c0.7,1.6,2.4,3.2,5.2,4
	c1,8.4,1.9,21.2,2.1,24.4h2.9c-0.2-2.7-1-15.2-2-23.9c0.4,0,0.8,0,1.2,0c1.6,0,3-0.4,4.2-1.2c1.2,0.7,2.7,1.1,4.2,1.2
	c0.4,0,0.8,0,1.2,0c-1,8.7-1.8,21.2-2,23.9h2.9c0.2-2.9,1.1-15.9,2.1-24.4c2.8-0.8,4.5-2.4,5.2-4
	C-112.1,247.9-112.4,245.9-113.7,244.5z M-137.3,248.5c-0.3-0.7-0.2-1.5,0.3-2l0.3-0.3c0.4,0.2,1,1.3,1.1,2c0.1,0.6,0.2,1.4,0.4,2.2
	C-136.4,249.9-137,249.2-137.3,248.5z M-126,248.4c-0.1,0.2-0.3,0.5-0.5,0.7c-0.2-0.3-0.4-0.5-0.5-0.7c-0.7-1.4-0.7-2.8-0.3-3.4
	c0.1-0.2,0.3-0.3,0.6-0.3l0.1,0l0.1,0l0.1,0c0.4,0,0.6,0.1,0.7,0.3C-125.3,245.7-125.2,247.1-126,248.4z M-115.5,248.5
	c-0.3,0.7-1,1.4-2.1,1.9c0.1-0.8,0.2-1.6,0.4-2.2c0.1-0.7,0.8-1.9,1.1-2c0,0,0.1,0,0.3,0.3C-115.3,247.1-115.2,247.8-115.5,248.5z"
	/>
<path fill="#ECF0F0" d="M-113,285.5c0-1.4-1.1-2.5-2.5-2.5c1.4,0,2.5-1.1,2.5-2.5s-1.1-2.5-2.5-2.5h-22c-1.4,0-2.5,1.1-2.5,2.5
	s1.1,2.5,2.5,2.5c-1.4,0-2.5,1.1-2.5,2.5s1.1,2.5,2.5,2.5c-1.4,0-2.5,1.1-2.5,2.5s1.1,2.5,2.5,2.5h1.5c0,1.7,4.3,5,6,5h7
	c1.7,0,6-3.3,6-5h1.5c1.4,0,2.5-1.1,2.5-2.5s-1.1-2.5-2.5-2.5C-114.1,288-113,286.9-113,285.5z"/>
<g>
	<defs>
		<path id="SVGID_2_" d="M-113,285.5c0-1.4-1.1-2.5-2.5-2.5c1.4,0,2.5-1.1,2.5-2.5s-1.1-2.5-2.5-2.5h-22c-1.4,0-2.5,1.1-2.5,2.5
			s1.1,2.5,2.5,2.5c-1.4,0-2.5,1.1-2.5,2.5s1.1,2.5,2.5,2.5c-1.4,0-2.5,1.1-2.5,2.5s1.1,2.5,2.5,2.5h1.5c0,1.7,4.3,5,6,5h7
			c1.7,0,6-3.3,6-5h1.5c1.4,0,2.5-1.1,2.5-2.5s-1.1-2.5-2.5-2.5C-114.1,288-113,286.9-113,285.5z"/>
	</defs>
	<clipPath id="SVGID_3_">
		<use xlink:href="#SVGID_2_"  overflow="visible"/>
	</clipPath>
	<path clip-path="url(#SVGID_3_)" fill="#D0D4D4" d="M-140,278v2h27v-2H-140z M-140,285h27v-2h-27V285z M-140,290h27v-2h-27V290z
		 M-140,298h27v-5h-27V298z"/>
</g>
</svg>
