<?xml version="1.0" encoding="utf-8"?>
<!-- Generator: Adobe Illustrator 18.0.0, SVG Export Plug-In . SVG Version: 6.00 Build 0)  -->
<!DOCTYPE svg PUBLIC "-//W3C//DTD SVG 1.1//EN" "http://www.w3.org/Graphics/SVG/1.1/DTD/svg11.dtd">
<svg version="1.1" id="Layer_1" xmlns="http://www.w3.org/2000/svg" xmlns:xlink="http://www.w3.org/1999/xlink" x="0px" y="0px"
	 width="40px" height="40px" viewBox="0 0 40 40" enable-background="new 0 0 40 40" xml:space="preserve">
<circle fill="#E5E325" cx="20" cy="20" r="20"/>
<path fill="#5EACEF" d="M18.628,9.028c-0.303-0.302-0.792-0.302-1.095,0l-7.664,7.664c-0.302,0.302-0.302,0.792,0,1.094
	l19.748,19.748c3.699-2.033,6.668-5.21,8.472-9.046L18.628,9.028z"/>
<path fill="#7EBDF2" d="M30.99,36.701L10.426,16.137L9.87,16.692c-0.288,0.288-0.293,0.746-0.03,1.05l19.787,19.787
	C30.094,37.272,30.547,36.993,30.99,36.701z"/>
<path fill="#CECC21" d="M29.618,37.534l-19.53-19.53L9.87,18.222c-0.302,0.302-0.302,0.792,0,1.094l18.722,18.722
	C28.937,37.875,29.285,37.718,29.618,37.534z"/>
<g>
	<g>
		<path fill="#4278A7" d="M24.98,15.386l-1.25,1.25c-0.296,0.298-0.296,0.953,0,1.25c0.297,0.297,0.954,0.297,1.25,0l1.25-1.25
			L24.98,15.386z M17.48,15.386c-0.283,0.283-0.283,0.967,0,1.25c0.283,0.284,0.967,0.284,1.25,0l3.75-3.75l-1.25-1.25L17.48,15.386
			z M28.731,19.136l-2.5,2.5c-0.296,0.297-0.296,0.953,0,1.25c0.297,0.297,0.954,0.297,1.25,0l2.5-2.5L28.731,19.136z
			 M32.481,22.887l-3.75,3.75c-0.297,0.298-0.297,0.953,0,1.25s0.953,0.297,1.25,0l3.75-3.75L32.481,22.887z M36.231,26.637
			l-2.5,2.5c-0.297,0.298-0.297,0.953,0,1.25s0.954,0.297,1.25,0l2.5-2.5L36.231,26.637z"/>
	</g>
</g>
</svg>
