<?xml version="1.0" encoding="utf-8"?>
<!-- Generator: Adobe Illustrator 18.0.0, SVG Export Plug-In . SVG Version: 6.00 Build 0)  -->
<!DOCTYPE svg PUBLIC "-//W3C//DTD SVG 1.1//EN" "http://www.w3.org/Graphics/SVG/1.1/DTD/svg11.dtd">
<svg version="1.1" id="Layer_1" xmlns="http://www.w3.org/2000/svg" xmlns:xlink="http://www.w3.org/1999/xlink" x="0px" y="0px"
	 width="40px" height="40px" viewBox="0 0 40 40" enable-background="new 0 0 40 40" xml:space="preserve">
<path fill-rule="evenodd" clip-rule="evenodd" fill="#22A048" d="M20,0c11.046,0,20,8.954,20,20s-8.954,20-20,20S0,31.046,0,20
	S8.954,0,20,0z"/>
<g>
	<g>
		<path fill-rule="evenodd" clip-rule="evenodd" fill="#1E9041" d="M10.25,18.5c-1.381,0-2.5,1.119-2.5,2.5
			c0,1.381,1.119,2.5,2.5,2.5c1.381,0,2.5-1.119,2.5-2.5C12.75,19.619,11.631,18.5,10.25,18.5z M19,18.5c-1.381,0-2.5,1.119-2.5,2.5
			c0,1.381,1.119,2.5,2.5,2.5c1.381,0,2.5-1.119,2.5-2.5C21.5,19.619,20.381,18.5,19,18.5z M27.75,18.5c-1.381,0-2.5,1.119-2.5,2.5
			c0,1.381,1.119,2.5,2.5,2.5s2.5-1.119,2.5-2.5C30.25,19.619,29.131,18.5,27.75,18.5z"/>
	</g>
</g>
<g>
	<g>
		<path fill-rule="evenodd" clip-rule="evenodd" fill="#FFFFFF" d="M11.25,17.5c-1.381,0-2.5,1.119-2.5,2.5
			c0,1.381,1.119,2.5,2.5,2.5c1.381,0,2.5-1.119,2.5-2.5C13.75,18.619,12.631,17.5,11.25,17.5z M20,17.5c-1.381,0-2.5,1.119-2.5,2.5
			c0,1.381,1.119,2.5,2.5,2.5c1.381,0,2.5-1.119,2.5-2.5C22.5,18.619,21.381,17.5,20,17.5z M28.75,17.5c-1.381,0-2.5,1.119-2.5,2.5
			c0,1.381,1.119,2.5,2.5,2.5s2.5-1.119,2.5-2.5C31.25,18.619,30.131,17.5,28.75,17.5z"/>
	</g>
</g>
</svg>
