<?xml version="1.0" encoding="utf-8"?>
<!-- Generator: Adobe Illustrator 18.0.0, SVG Export Plug-In . SVG Version: 6.00 Build 0)  -->
<!DOCTYPE svg PUBLIC "-//W3C//DTD SVG 1.1//EN" "http://www.w3.org/Graphics/SVG/1.1/DTD/svg11.dtd">
<svg version="1.1" id="Layer_1" xmlns="http://www.w3.org/2000/svg" xmlns:xlink="http://www.w3.org/1999/xlink" x="0px" y="0px"
	 width="40px" height="40px" viewBox="0 0 40 40" enable-background="new 0 0 40 40" xml:space="preserve">
<g>
	<path fill="#D55248" d="M20,0c11.046,0,20,8.954,20,20s-8.954,20-20,20S0,31.046,0,20S8.954,0,20,0z"/>
	<g>
		<g>
			<g>
				<path fill="#2D4552" d="M25.93,25.441c1.198,0.87,2.356,2.301,1.194,3.437c-0.565,0.553-1.808,0.408-2.557-0.5
					c-1.518-1.838-1.749-1.964-2.33-2.502C20.028,23.83,24.108,24.119,25.93,25.441z"/>
				<path fill="#E0E3E4" d="M7,14.4c0.552,0,1,0.269,1,0.6c0,0.332-0.448,0.6-1,0.6S6,15.332,6,15C6,14.669,6.448,14.4,7,14.4z"/>
				<path fill="#566C77" d="M28.79,17.958c0.211-0.256,0.411-0.441,0.811-0.554V15.2L28,14.8L28.79,17.958z M31.2,17.403
					c0.4,0.114,0.599,0.298,0.81,0.554L32.8,14.8l-1.6,0.4C31.2,15.2,31.2,17.403,31.2,17.403z"/>
			</g>
		</g>
	</g>
	<path fill="#324D5B" d="M38.606,12.666c-2.151,0.362-4.347,0.827-5.964,1.281c-1.258,0.353-2.29,0.442-2.292,0.442
		c-0.21-0.024-1.096-0.134-2.192-0.442c-3.368-0.945-9.257-1.944-11.993-1.944c-7.56,0-11.759,1.196-11.759,1.196l0.352,3.558
		c1.884,0.562,0.846,1.09,2.785,6.576c1.579,4.464,3.238,5.227,7.586,5.872c6.736,0,8.97-2.668,8.996-2.692
		c1.735-1.644,3.889-5.96,4.332-7.888c0.418-1.818,3.469-1.818,3.887,0c0.443,1.928,2.597,6.244,4.332,7.888
		c0.012,0.012,0.519,0.614,1.762,1.246C39.444,25.373,40,22.752,40,20C40,17.41,39.502,14.938,38.606,12.666z"/>
	<g>
		<path fill="#98CDDE" d="M39.125,14.138c-2.198,0.455-4.284,1.283-4.284,2.778c0,0.33-0.077,0.786,0,1.313
			c0.647,4.406,2.257,6.755,4.164,8.001C39.648,24.268,40,22.176,40,20C40,17.96,39.693,15.992,39.125,14.138z"/>
		<path fill="#98CDDE" d="M16.685,13.593h-0.804c-5.214,0-7.481,0.999-7.481,4.367v1.16c0,7.036,3.471,8.473,7.21,8.473h0.523
			c3.659,0,8.565-0.788,9.826-9.368c0.077-0.526,0-0.982,0-1.312C25.959,13.885,17.398,13.593,16.685,13.593z"/>
	</g>
	<path fill="#ADD7E5" d="M17.333,26.393H16.81c-3.738,0-7.21-1.437-7.21-8.473v-1.16c0-0.883,0.16-1.599,0.484-2.181
		C8.94,15.254,8.4,16.326,8.4,17.96v1.16c0,7.036,3.471,8.473,7.21,8.473h0.523c2.385,0,5.299-0.338,7.389-2.948
		C21.601,26.166,19.289,26.393,17.333,26.393z"/>
	<path fill="#ADD7E5" d="M36.041,17.025c-0.077-0.526,0-0.981,0-1.311c0-0.205,0.042-0.395,0.115-0.575
		c-0.794,0.451-1.315,1.03-1.315,1.777c0,0.33-0.077,0.783,0,1.31c0.647,4.407,2.258,6.756,4.166,8
		c0.186-0.568,0.346-1.147,0.481-1.736C37.901,23.142,36.605,20.866,36.041,17.025z"/>
</g>
</svg>
