<?xml version="1.0" encoding="utf-8"?>
<!-- Generator: Adobe Illustrator 18.1.0, SVG Export Plug-In . SVG Version: 6.00 Build 0)  -->
<svg version="1.1" id="Layer_1" xmlns="http://www.w3.org/2000/svg" xmlns:xlink="http://www.w3.org/1999/xlink" x="0px" y="0px"
	 viewBox="-2335 1041 512 512" enable-background="new -2335 1041 512 512" xml:space="preserve">
<g id="Layer_16">
	<g>
		<circle fill="#4CAFE2" cx="-2079" cy="1297" r="256"/>
	</g>
	<g>
		<g>
			<g>
				<g>
					<circle fill="#E1E1E2" cx="-2169.5" cy="1211.5" r="64"/>
				</g>
			</g>
			<g>
				<g>
					
						<rect x="-2216.1" y="1156.8" transform="matrix(-0.7071 0.7071 -0.7071 -0.7071 -2901.5798 3579.5427)" fill="#4CAFE2" width="48" height="64"/>
				</g>
			</g>
			<g>
				<circle fill="#E1E1E2" cx="-1965.9" cy="1415.1" r="32"/>
			</g>
			<g>
				
					<rect x="-2099.7" y="1169.3" transform="matrix(-0.7071 0.7071 -0.7071 -0.7071 -2601.1294 3704.0056)" fill="#E1E1E2" width="64" height="288"/>
			</g>
			<g>
				<circle fill="#4CAFE2" cx="-1965.9" cy="1415.1" r="24"/>
			</g>
		</g>
		<g>
			
				<rect x="-2091.7" y="1205.3" transform="matrix(-0.7071 0.7071 -0.7071 -0.7071 -2601.1423 3703.9719)" fill="#C4C3C4" width="48" height="216"/>
		</g>
		<g>
			<g>
				
					<rect x="-2154.9" y="1273.9" transform="matrix(-0.7071 -0.7071 0.7071 -0.7071 -4633.5859 820.4089)" fill="#FFFFFF" width="16" height="192"/>
			</g>
			<g>
				<polygon fill="#FFFFFF" points="-2221.8,1430.7 -2204.9,1408 -2189.3,1401 -2178,1412.3 -2185.1,1427.8 -2207.7,1444.8 				"/>
			</g>
			<g>
				
					<rect x="-2043.1" y="1162.1" transform="matrix(0.7071 0.7071 -0.7071 0.7071 283.5917 1783.5447)" fill="#213538" width="64" height="144"/>
			</g>
			<g>
				
					<rect x="-2094.5" y="1281.5" transform="matrix(0.7071 0.7071 -0.7071 0.7071 308.1942 1842.9377)" fill="#08191E" width="48" height="24"/>
			</g>
			<g>
				
					<rect x="-2105.4" y="1288.3" transform="matrix(0.7071 0.7071 -0.7071 0.7071 309.3638 1845.7704)" fill="#08191E" width="64" height="16"/>
			</g>
			<g>
				
					<rect x="-1975.7" y="1162.7" transform="matrix(0.7071 0.7071 -0.7071 0.7071 258.9912 1724.1434)" fill="#08191E" width="48" height="24"/>
			</g>
			<g>
				
					<rect x="-1986.5" y="1169.5" transform="matrix(0.7071 0.7071 -0.7071 0.7071 260.163 1726.9583)" fill="#08191E" width="64" height="16"/>
			</g>
			<g>
				<path fill="#08191E" d="M-1937.6,1183.2c3.1-3.1,8.2-3.1,11.3,0s3.1,8.2,0,11.3c-3.1,3.1-8.2,3.1-11.3,0
					C-1940.7,1191.4-1940.7,1186.3-1937.6,1183.2z"/>
			</g>
			<g>
				<circle fill="#08191E" cx="-1965.9" cy="1154.9" r="8"/>
			</g>
		</g>
	</g>
</g>
<g id="Layer_1_1_">
</g>
</svg>
